<?xml version="1.0" encoding="UTF-8"?><svg id="Layer_2" xmlns="http://www.w3.org/2000/svg" viewBox="0 0 300 300"><defs><style>.cls-1{fill:#fff;}.cls-2{fill:#2b6541;}</style></defs><g id="Layer_1-2"><rect class="cls-2" width="300" height="300"/><path class="cls-1" d="M196.96,84.93v.33c0,19.88,14.74,36.45,35.76,36.45v25.71c-19.49,0-36.13-8.06-47.4-20.9l8.03,18.87h-28.94l-9.46-24.55h-49.61l-9.46,24.55h-28.26l10.51-24.67c27.49-12.29,58.33-22.68,91.67-30.68h0c-.07-1.2-.11-2.39-.11-3.61v-.33c0-33.73,26.44-61.34,63.03-61.34v24.07c-21.01,0-35.76,16.23-35.76,36.11ZM165.76,80.59c-7.82,1.06-16.2,2.28-24.92,3.68l-10.71-27.8-12.24,31.78c-9.48,1.76-19.05,3.68-28.42,5.77l28.96-68.08h24.07l23.26,54.65Z"/><path class="cls-1" d="M232.66,168.2l.2.14H67.47v-5.45h165.39v5.45s-.2-.14-.2-.14Z"/><path class="cls-1" d="M81.22,181.75c7.44,0,12.12,3.61,14.87,7.87l-6.36,3.45c-1.67-2.53-4.74-4.53-8.51-4.53-6.52,0-11.26,5.01-11.26,11.8s4.74,11.8,11.26,11.8c3.29,0,6.2-1.35,7.76-2.75v-4.36h-9.59v-6.57h17.13v13.74c-3.66,4.09-8.78,6.79-15.3,6.79-10.51,0-19.13-7.33-19.13-18.64s8.62-18.59,19.13-18.59Z"/><path class="cls-1" d="M101.36,218.28v-26.02h6.84v3.56c1.83-2.32,5.06-4.15,8.3-4.15v6.68c-.48-.11-1.13-.16-1.89-.16-2.26,0-5.28,1.24-6.41,2.91v17.19h-6.84Z"/><path class="cls-1" d="M135.3,218.28v-2.69c-1.78,2.1-4.85,3.34-8.24,3.34-4.15,0-9.05-2.8-9.05-8.62s4.9-8.3,9.05-8.3c3.45,0,6.52,1.08,8.24,3.18v-3.61c0-2.64-2.26-4.36-5.71-4.36-2.8,0-5.39,1.02-7.6,3.07l-2.59-4.58c3.18-2.8,7.27-4.09,11.37-4.09,5.93,0,11.37,2.37,11.37,9.86v16.81h-6.84ZM135.3,208.8c-1.13-1.51-3.29-2.26-5.5-2.26-2.69,0-4.9,1.45-4.9,3.93s2.21,3.83,4.9,3.83c2.21,0,4.36-.75,5.5-2.26v-3.23Z"/><path class="cls-1" d="M154.7,228.19h-6.84v-35.94h6.84v3.29c1.99-2.53,4.85-3.93,8.03-3.93,6.68,0,11.53,4.96,11.53,13.63s-4.85,13.69-11.53,13.69c-3.07,0-5.93-1.29-8.03-3.99v13.25ZM160.57,197.7c-2.21,0-4.74,1.29-5.87,2.96v9.21c1.13,1.62,3.66,2.96,5.87,2.96,3.93,0,6.57-3.07,6.57-7.6s-2.64-7.54-6.57-7.54Z"/><path class="cls-1" d="M195.91,218.28v-15.84c0-3.61-1.88-4.74-4.85-4.74-2.64,0-4.74,1.51-5.93,3.07v17.51h-6.84v-35.94h6.84v13.31c1.67-1.99,4.9-4.04,9.16-4.04,5.71,0,8.46,3.12,8.46,8.19v18.48h-6.84Z"/><path class="cls-1" d="M207.76,184.34c0-2.26,1.89-4.09,4.1-4.09s4.09,1.83,4.09,4.09-1.83,4.09-4.09,4.09-4.1-1.83-4.1-4.09ZM208.46,218.28v-26.02h6.84v26.02h-6.84Z"/><path class="cls-1" d="M233.13,191.61c5.33,0,8.57,2.32,10.29,4.74l-4.47,4.15c-1.24-1.78-3.12-2.8-5.49-2.8-4.15,0-7.06,3.02-7.06,7.54s2.91,7.6,7.06,7.6c2.37,0,4.26-1.08,5.49-2.8l4.47,4.15c-1.72,2.42-4.96,4.74-10.29,4.74-8.03,0-13.79-5.66-13.79-13.69s5.77-13.63,13.79-13.63Z"/><path class="cls-1" d="M73.38,268.23v-35.94h14.17c11.26,0,19.07,7.17,19.07,18s-7.81,17.94-19.07,17.94h-14.17ZM81.03,261.5h6.52c7.11,0,11.26-5.12,11.26-11.21s-3.88-11.26-11.26-11.26h-6.52v22.47Z"/><path class="cls-1" d="M122.62,241.56c7.76,0,13.04,5.82,13.04,14.33v1.51h-19.34c.43,3.29,3.07,6.04,7.49,6.04,2.42,0,5.28-.97,6.95-2.59l3.02,4.42c-2.64,2.42-6.68,3.61-10.72,3.61-7.92,0-13.9-5.33-13.9-13.69,0-7.54,5.55-13.63,13.47-13.63ZM116.21,252.77h12.82c-.16-2.48-1.89-5.77-6.41-5.77-4.26,0-6.09,3.18-6.41,5.77Z"/><path class="cls-1" d="M140.23,260.05c1.89,1.78,5.76,3.56,9,3.56,2.96,0,4.36-1.02,4.36-2.64,0-1.83-2.26-2.48-5.23-3.07-4.47-.86-10.24-1.94-10.24-8.14,0-4.36,3.83-8.19,10.67-8.19,4.42,0,7.92,1.51,10.45,3.56l-2.7,4.69c-1.56-1.67-4.53-3.02-7.7-3.02-2.48,0-4.1.92-4.1,2.42,0,1.62,2.05,2.21,4.96,2.8,4.47.86,10.45,2.05,10.45,8.51,0,4.8-4.04,8.35-11.26,8.35-4.53,0-8.89-1.51-11.64-4.04l2.96-4.79Z"/><path class="cls-1" d="M163.45,234.29c0-2.26,1.89-4.09,4.1-4.09s4.09,1.83,4.09,4.09-1.83,4.09-4.09,4.09-4.1-1.83-4.1-4.09ZM164.15,268.23v-26.02h6.84v26.02h-6.84Z"/><path class="cls-1" d="M179.23,269.96c2.1,2.32,4.85,3.23,8.13,3.23s7.17-1.46,7.17-6.57v-2.64c-2.05,2.59-4.85,4.09-8.03,4.09-6.52,0-11.48-4.58-11.48-13.25s4.9-13.25,11.48-13.25c3.12,0,5.93,1.35,8.03,3.99v-3.34h6.9v24.25c0,9.91-7.65,12.34-14.06,12.34-4.47,0-7.97-1.02-11.21-3.88l3.07-4.96ZM194.53,250.62c-1.13-1.72-3.61-2.96-5.87-2.96-3.88,0-6.57,2.69-6.57,7.17s2.69,7.17,6.57,7.17c2.26,0,4.74-1.29,5.87-2.96v-8.41Z"/><path class="cls-1" d="M224.7,268.23v-15.73c0-3.61-1.88-4.85-4.79-4.85-2.69,0-4.79,1.51-5.93,3.07v17.51h-6.84v-26.02h6.84v3.39c1.67-1.99,4.85-4.04,9.11-4.04,5.71,0,8.46,3.23,8.46,8.3v18.37h-6.84Z"/></g></svg>