<svg xmlns="http://www.w3.org/2000/svg" id="Layer_1" viewBox="0 0 216 45.32" width="216" height="45.32"><defs><style>.cls-1{fill:#fff}</style></defs><path d="M134.3 17.56c-.88-1.29-1.37-2.87-1.37-4.55v-.07c0-4.27 3.13-7.76 7.65-7.76h.07c4.52 0 7.65 3.49 7.65 7.76v.07c0 1.35-.27 2.59-.76 3.67L146 15.32l-3.47 3.96c3.03.5 6.16.89 9.38 1.16 1.46-2.12 2.26-4.59 2.26-7.25v-.07c0-7.25-5.65-13.12-13.51-13.12s-13.59 5.94-13.59 13.19v.07c0 .75.06 1.48.18 2.2 2.25.78 4.61 1.48 7.06 2.1zm39.09 2.85c1.76-.14 3.5-.32 5.22-.53.51-1.44.78-3.12.78-5.05V.44h-5.61v14.61c0 2.8-1 4.66-2.75 5.54.78-.05 1.57-.11 2.36-.17zm15.55-2.19V.44h-5.61v18.79c1.9-.3 3.77-.63 5.61-1zm9.94-2.43V9.73l3.74 4.9c1.8-.59 3.56-1.22 5.27-1.88L198.52.44h-5.17v16.81c1.88-.45 3.73-.94 5.54-1.46zm-32.78 5.02c-2.11-.77-3.32-2.77-3.32-5.95V.44h-5.61v14.57c0 2.27.38 4.2 1.11 5.79 2.57.08 5.18.09 7.82 0zm27.24-1.03v6.16h5.54V18.8c-1.82.35-3.67.68-5.54.98zm-10.01 1.34v4.81h5.61v-5.5c-1.85.25-3.72.48-5.61.69zm-5.86.55c-6.29.49-12.45.67-18.39.56 1.86 2.73 5.02 4.11 9.13 4.11 4.38 0 7.73-1.55 9.58-4.7-.11 0-.21.02-.32.03zm-37.97-.9s-.09-.01-.13-.02c-3.86-.53-7.57-1.19-11.11-1.96 2.05 4.48 6.6 7.59 12.32 7.59 2.84 0 5.46-.84 7.61-2.22l4.02 3.6 3.59-4.07-1.95-1.62c-4.97-.23-9.78-.67-14.37-1.29zm70.96-4.63c-1.84.49-3.72.96-5.64 1.4l6.4 8.4h4.77V14.55c-1.81.55-3.65 1.08-5.54 1.59zm0-15.7v11.27c1.91-.8 3.76-1.65 5.54-2.54V.44h-5.54zM46.32 8.15c1.97-.12 3.92-.21 5.85-.28 1.34-1.65 3.29-2.7 5.49-2.7 2.95 0 4.7.95 6.67 2.59l3.53-4.26C65.2 1.24 62.43 0 57.84 0c-5.85 0-10.5 3.41-12.42 8.21l.89-.06zm32.05.36c1.33-2.02 3.56-3.34 6.31-3.34 3.45 0 6.14 2.13 7.21 5.09 2.17.38 4.26.79 6.28 1.25C97.4 5.02 92.03 0 84.75 0c-5.9 0-10.59 3.34-12.57 8.06 2.1.12 4.16.27 6.19.45zm-44.23.71V.44h-5.61v9.51c1.84-.26 3.71-.5 5.61-.72zm84.22 6.92L106.41.44h-5.17v11.8c1.93.49 3.78 1.02 5.54 1.58V9.73l12.35 16.21h4.77v-8.2c-1.91-.5-3.76-1.03-5.54-1.6zm-17.12 9.8h5.54v-7.49c-1.76-.85-3.6-1.66-5.54-2.4v9.9zM118.36.44v11.27c1.75.89 3.6 1.73 5.54 2.51V.44h-5.54zM92.4 13.16v.1c0 4.37-3.13 7.94-7.65 7.94s-7.72-3.64-7.72-8.02v-.07c0-1.02.17-1.99.49-2.88-1.92-.25-3.88-.46-5.87-.62-.32 1.14-.49 2.34-.49 3.58v.07c0 7.25 5.65 13.11 13.52 13.11 7.23 0 12.65-5.02 13.47-11.46-1.85-.63-3.77-1.22-5.75-1.76zM57.7 16.1h5.65v3.64c-1.42 1.02-3.24 1.53-5.28 1.53-4.52 0-7.72-3.42-7.72-8.09v-.07c0-1.35.31-2.62.86-3.74-1.06.06-2.12.13-3.18.22-1.05.08-2.1.18-3.14.28a13.4 13.4 0 0 0-.41 3.31v.07c0 7.54 5.46 13.11 13.41 13.11 4.66 0 8.27-1.82 10.89-4.04V11.25H57.71v4.84zm-23.56-4.75c-1.9.33-3.77.7-5.61 1.1v13.49h15.93v-5.28H34.14v-9.31zM1.91 21.45L0 25.94h5.72l2.16-5.28h11.14l2.15 5.28h5.87l-5.06-11.9c-7.34 1.98-14.09 4.49-20.05 7.41zm8.96-8.17l2.57-6.29 2.14 5.22c1.69-.36 3.42-.7 5.18-1.02L16.1.26h-5.17L4.7 14.89c1.99-.56 4.05-1.1 6.17-1.61zm103.82 24.39v-.04c0-4.23 3.17-7.69 7.67-7.69 2.74 0 4.4.96 5.82 2.32l-1.68 1.93c-1.19-1.11-2.46-1.85-4.17-1.85-2.85 0-4.91 2.34-4.91 5.25v.04c0 2.91 2.06 5.29 4.91 5.29 1.83 0 3-.74 4.27-1.93l1.68 1.7c-1.55 1.62-3.25 2.63-6.04 2.63-4.33 0-7.56-3.38-7.56-7.65zm14.97 0v-.04c0-4.19 3.23-7.69 7.8-7.69s7.76 3.46 7.76 7.65v.04c0 4.19-3.23 7.69-7.8 7.69s-7.76-3.46-7.76-7.65zm12.81 0v-.04c0-2.89-2.1-5.29-5.06-5.29s-5.01 2.36-5.01 5.25v.04c0 2.89 2.1 5.29 5.06 5.29s5.01-2.36 5.01-5.25zm5.44-7.48h2.61v12.49h7.82v2.38h-10.43V30.19zm13.14 0h2.61v12.49h7.82v2.38h-10.43V30.19zm13.13 0h11.03v2.34h-8.41v3.87h7.46v2.34h-7.46v4h8.52v2.34h-11.13V30.21zm13.38 7.48v-.04c0-4.17 3.19-7.69 7.67-7.69 2.59 0 4.19.72 5.72 2.02l-1.66 1.98c-1.15-.98-2.27-1.59-4.17-1.59-2.74 0-4.82 2.4-4.82 5.25v.04c0 3.06 2.02 5.31 5.06 5.31 1.4 0 2.68-.45 3.59-1.12v-2.78h-3.8v-2.27h6.33v6.25c-1.47 1.25-3.57 2.32-6.2 2.32-4.65 0-7.71-3.31-7.71-7.65zm17.31-7.48h11.03v2.34h-8.41v3.87h7.46v2.34h-7.46v4h8.52v2.34h-11.13V30.21z" class="cls-1"/><path d="M134.3 17.56c-.88-1.29-1.37-2.87-1.37-4.55v-.07c0-4.27 3.13-7.76 7.65-7.76h.07c4.52 0 7.65 3.49 7.65 7.76v.07c0 1.35-.27 2.59-.76 3.67L146 15.32l-3.47 3.96c3.03.5 6.16.89 9.38 1.16 1.46-2.12 2.26-4.59 2.26-7.25v-.07c0-7.25-5.65-13.12-13.51-13.12s-13.59 5.94-13.59 13.19v.07c0 .75.06 1.48.18 2.2 2.25.78 4.61 1.48 7.06 2.1zm39.09 2.85c1.76-.14 3.5-.32 5.22-.53.51-1.44.78-3.12.78-5.05V.44h-5.61v14.61c0 2.8-1 4.66-2.75 5.54.78-.05 1.57-.11 2.36-.17zm15.55-2.19V.44h-5.61v18.79c1.9-.3 3.77-.63 5.61-1zm9.94-2.43V9.73l3.74 4.9c1.8-.59 3.56-1.22 5.27-1.88L198.52.44h-5.17v16.81c1.88-.45 3.73-.94 5.54-1.46zm-32.78 5.02c-2.11-.77-3.32-2.77-3.32-5.95V.44h-5.61v14.57c0 2.27.38 4.2 1.11 5.79 2.57.08 5.18.09 7.82 0zm27.24-1.03v6.16h5.54V18.8c-1.82.35-3.67.68-5.54.98zm-10.01 1.34v4.81h5.61v-5.5c-1.85.25-3.72.48-5.61.69zm-5.86.55c-6.29.49-12.45.67-18.39.56 1.86 2.73 5.02 4.11 9.13 4.11 4.38 0 7.73-1.55 9.58-4.7-.11 0-.21.02-.32.03zm-37.97-.9s-.09-.01-.13-.02c-3.86-.53-7.57-1.19-11.11-1.96 2.05 4.48 6.6 7.59 12.32 7.59 2.84 0 5.46-.84 7.61-2.22l4.02 3.6 3.59-4.07-1.95-1.62c-4.97-.23-9.78-.67-14.37-1.29zm70.96-4.63c-1.84.49-3.72.96-5.64 1.4l6.4 8.4h4.77V14.55c-1.81.55-3.65 1.08-5.54 1.59zm0-15.7v11.27c1.91-.8 3.76-1.65 5.54-2.54V.44h-5.54zM46.32 8.15c1.97-.12 3.92-.21 5.85-.28 1.34-1.65 3.29-2.7 5.49-2.7 2.95 0 4.7.95 6.67 2.59l3.53-4.26C65.2 1.24 62.43 0 57.84 0c-5.85 0-10.5 3.41-12.42 8.21l.89-.06zm32.05.36c1.33-2.02 3.56-3.34 6.31-3.34 3.45 0 6.14 2.13 7.21 5.09 2.17.38 4.26.79 6.28 1.25C97.4 5.02 92.03 0 84.75 0c-5.9 0-10.59 3.34-12.57 8.06 2.1.12 4.16.27 6.19.45zm-44.23.71V.44h-5.61v9.51c1.84-.26 3.71-.5 5.61-.72zm84.22 6.92L106.41.44h-5.17v11.8c1.93.49 3.78 1.02 5.54 1.58V9.73l12.35 16.21h4.77v-8.2c-1.91-.5-3.76-1.03-5.54-1.6zm-17.12 9.8h5.54v-7.49c-1.76-.85-3.6-1.66-5.54-2.4v9.9zM118.36.44v11.27c1.75.89 3.6 1.73 5.54 2.51V.44h-5.54zM92.4 13.16v.1c0 4.37-3.13 7.94-7.65 7.94s-7.72-3.64-7.72-8.02v-.07c0-1.02.17-1.99.49-2.88-1.92-.25-3.88-.46-5.87-.62-.32 1.14-.49 2.34-.49 3.58v.07c0 7.25 5.65 13.11 13.52 13.11 7.23 0 12.65-5.02 13.47-11.46-1.85-.63-3.77-1.22-5.75-1.76zM57.7 16.1h5.65v3.64c-1.42 1.02-3.24 1.53-5.28 1.53-4.52 0-7.72-3.42-7.72-8.09v-.07c0-1.35.31-2.62.86-3.74-1.06.06-2.12.13-3.18.22-1.05.08-2.1.18-3.14.28a13.4 13.4 0 0 0-.41 3.31v.07c0 7.54 5.46 13.11 13.41 13.11 4.66 0 8.27-1.82 10.89-4.04V11.25H57.71v4.84zm-23.56-4.75c-1.9.33-3.77.7-5.61 1.1v13.49h15.93v-5.28H34.14v-9.31zM1.91 21.45L0 25.94h5.72l2.16-5.28h11.14l2.15 5.28h5.87l-5.06-11.9c-7.34 1.98-14.09 4.49-20.05 7.41zm8.96-8.17l2.57-6.29 2.14 5.22c1.69-.36 3.42-.7 5.18-1.02L16.1.26h-5.17L4.7 14.89c1.99-.56 4.05-1.1 6.17-1.61z" class="cls-1"/></svg>