<svg xmlns="http://www.w3.org/2000/svg" id="Layer_1" viewBox="0 0 960 960" width="960" height="960"><defs><style>.st0{fill:#95c846}</style></defs><path d="M799.3 447.4L520.9 169c-8.7-8.7-20.3-13.5-32.7-13.5-12.4 0-23.9 4.8-32.5 13.5l-33.5 33.5c-8.7 8.7-13.6 20.4-13.5 32.7 0 12.3 4.8 23.8 13.5 32.5l141.5 141.5H181.2c-25.5 0-46.2 20.7-46.2 46.2v49.1c0 25.5 20.7 46.2 46.2 46.2h382.5L422.2 692.2c-8.7 8.7-13.6 20.4-13.5 32.7 0 12.3 4.8 23.8 13.5 32.4l33.5 33.5c8.7 8.7 20.3 13.5 32.7 13.5 12.4 0 23.9-4.8 32.5-13.5l40-40.3v.4l238.4-238.4c8.7-8.7 13.6-20.4 13.5-32.7 0-12.3-4.8-23.8-13.5-32.5z" class="st0"/></svg>