<svg xmlns="http://www.w3.org/2000/svg" width="256" height="256" viewBox="0 0 256 256"><path d="M103.9 136.1c-2.9-2.1-6.8-3.1-11.5-3.1H68v27h24a29.6 29.6 0 0 0 6.1-.6 15.7 15.7 0 0 0 5.2-2 9.8 9.8 0 0 0 3.6-4 13.5 13.5 0 0 0 1.3-6.4c0-5.1-1.4-8.7-4.3-10.9z"/><path d="M234.3 1H21.7A20.7 20.7 0 0 0 1 21.7v212.6A20.7 20.7 0 0 0 21.7 255h212.6a20.7 20.7 0 0 0 20.7-20.7V21.7A20.7 20.7 0 0 0 234.3 1zM153 84h40v10h-40zm-25.7 77.2a24.7 24.7 0 0 1-7.9 9.2 34.2 34.2 0 0 1-11.4 5.1 50.2 50.2 0 0 1-13 1.5H46V77h48a64.3 64.3 0 0 1 12.8 1.3 27.9 27.9 0 0 1 10 4.1 19.1 19.1 0 0 1 6.5 7.6 26.9 26.9 0 0 1 2.3 11.7 21.9 21.9 0 0 1-3.4 12.6 24.9 24.9 0 0 1-10.2 8.3c6.2 1.8 10.7 4.9 13.7 9.3a27.9 27.9 0 0 1 4.5 16.1 27.8 27.8 0 0 1-2.9 13.2zm82.2-16.2h-52.3c0 6 1.9 11.3 4.9 14.3l-.5.3c3 2.9 7.3 4.4 12.9 4.4a17.6 17.6 0 0 0 10.4-2.8c2.9-2 4.6-4.2 5.3-6.2h17.6c-2.7 8-7.1 14.8-12.9 18.5s-12.8 5.6-20.9 5.6a41.8 41.8 0 0 1-15.5-2.8 33.1 33.1 0 0 1-11.7-7.8 35.3 35.3 0 0 1-7.3-12.1 44.4 44.4 0 0 1-2.5-15.5 41 41 0 0 1 2.7-15.2 36.5 36.5 0 0 1 7.6-12.2 37 37 0 0 1 11.8-8.1 36.6 36.6 0 0 1 15.1-2.9 34.1 34.1 0 0 1 16.2 3.6 32.2 32.2 0 0 1 11.3 9.6 36 36 0 0 1 6.4 13.5 53.1 53.1 0 0 1 1.4 15.8z"/><path d="M91 117.5a15.2 15.2 0 0 0 9.6-2.8c2.5-1.9 3.7-4.9 3.7-9.1a11.9 11.9 0 0 0-1.3-5.7 9.2 9.2 0 0 0-3.4-3.5 14.1 14.1 0 0 0-4.9-1.8A30.1 30.1 0 0 0 89 94H68v23h23zm93 4.2c-2-2.6-6.1-4-11-4a16.3 16.3 0 0 0-7.8 1.6 14.3 14.3 0 0 0-5 4 14 14 0 0 0-2.6 5 28.8 28.8 0 0 0-.9 4.7h32.4c-.5-5-2.1-8.8-5.1-11.4z"/></svg>