<svg xmlns="http://www.w3.org/2000/svg" id="Layer_1" viewBox="0 0 256 256" width="256" height="256"><defs><style>.st0,.st1{fill:none;stroke:#999;stroke-miterlimit:10;stroke-width:10px}.st1{fill:#fff}.st2{fill:#999}</style></defs><path d="M154.6 28.7l46.1 26.6 26.6 46.1v53.2l-26.6 46.1-46.1 26.6h-53.2l-46.1-26.6-26.6-46.1v-53.2l26.6-46.1 46.1-26.6h53.2z" class="st0"/><path d="M89.5 91.9L110 76.7V178" class="st1"/><path d="M154 162.3v-10c-6.3-.8-10.8-3.1-14.4-6.9s-5.6-9.5-5.6-16.8c0-12.8 7.8-22.5 19.9-24.5v-9.9h6.1v9.7c3.7 0 7.4.9 10.8 2.5l-2 6.6c-3.1-1.7-6.7-2.6-10.3-2.5-9.8 0-15.9 7.9-15.9 17.6s6.7 17.5 15.5 17.5 7.8-.8 11.3-2.5l1.6 6.2c-3.4 1.7-7.2 2.7-11 2.9v10h-6z" class="st2"/></svg>