<?xml version="1.0" encoding="UTF-8"?><svg id="Layer_1" xmlns="http://www.w3.org/2000/svg" viewBox="0 0 10 10"><defs><style>.cls-1{fill:rgb(149, 200, 70);}</style></defs><path class="cls-1" d="M9.83,9.83H.17V.17h9.65v9.65ZM8.93,9.01V.99H1.07v8.02h7.86ZM8.21,1.81l-.24.26c-.26.27-1.63,2.08-2.03,2.69-.75,1.14-1.42,2.35-2.21,3.46-.08.11-.21.22-.37.22h-.61c-.24,0-.85-1.78-.85-2.24,0-.06.05-.18.14-.24l.54-.34c.1-.02.16-.03.24-.03.26,0,.38.86.64,1.12l2.26-3.38c.24-.35.85-1.2,1.18-1.38.34-.18.78-.27,1.25-.32l.05.18Z"/></svg>
