<?xml version="1.0" encoding="UTF-8"?>
<svg id="Layer_1" xmlns="http://www.w3.org/2000/svg" version="1.1" viewBox="0 0 10 10">
  <defs>
    <style>
      .st0 {
        fill: #95c846;
      }
    </style>
  </defs>
  <path class="st0" d="M2.8,9.8h-.8c-.7,0-1.6-3.4-1.6-3.8s.1-.4.3-.5l.7-.5s0,0,0,0c.2,0,.2,0,.4,0,.4,0,.5.4.7.9,0,.1.4.8.4.9l2.8-4.2c.3-.5,1.2-1.6,1.7-1.9.4-.2,1-.4,1.8-.5.1,0,.2,0,.3.2v.2c0,0,0,0,0,0,0,0,0,.2,0,.3l-.3.3c-.3.3-2.1,2.7-2.7,3.5-.4.6-.8,1.2-1.2,1.9-.6.9-1.1,1.9-1.8,2.7-.2.3-.4.4-.7.4Z"/>
</svg>
