<?xml version="1.0" encoding="UTF-8"?>
<svg id="Layer_1" xmlns="http://www.w3.org/2000/svg" version="1.1" viewBox="0 0 256 256">
  <!-- Generator: Adobe Illustrator 29.8.1, SVG Export Plug-In . SVG Version: 2.1.1 Build 2)  -->
  <defs>
    <style>
      .st0 {
        fill: #fff;
      }
    </style>
  </defs>
  <path class="st0" d="M234.3,1H21.7C10.3,1,1,10.3,1,21.7h0v212.6c0,11.4,9.3,20.7,20.7,20.7h212.6c11.4,0,20.7-9.3,20.7-20.7V21.7c0-11.4-9.3-20.7-20.7-20.7ZM208.8,128h-29.8v81h-35v-81h-16v-26h16v-17.7c0-12.3,3-21.6,8.9-27.9s15.6-9.4,28.8-9.4h31.3v29h-25.5c-3.6,0-5.9.7-7,2.5s-1.5,4.6-1.5,8.7v14.8h34.5l-4.7,26Z"/>
</svg>