<svg xmlns="http://www.w3.org/2000/svg" id="Layer_1" viewBox="0 0 256 256" width="256" height="256"><defs><style>.st0{fill:#999}</style></defs><path d="M29.9 225.9c1 1.1 2.5 1.6 4 1.4l63.9-9.7c1-.2 1.8-.6 2.5-1.3l95-95L226 90.6c1.8-1.7 1.8-4.6 0-6.4L171.8 30c-1.7-1.8-4.6-1.8-6.4 0l-30.6 30.7-95 95.1c-.7.7-1.1 1.5-1.3 2.5l-9.7 63.9c-.2 1.4.3 2.7 1.2 3.7m8.7-8.4l7.8-51.5 43.7 43.7-51.5 7.8m60-12.2l-48-47.8 86-86 47.8 47.8-86 86m92.4-92.4l-47.7-47.8 25.5-25.5 47.8 47.8-25.5 25.5" class="st0"/></svg>