<?xml version="1.0" encoding="UTF-8"?>
<svg id="Layer_1" xmlns="http://www.w3.org/2000/svg" version="1.1" viewBox="0 0 256 256">
  <!-- Generator: Adobe Illustrator 29.8.1, SVG Export Plug-In . SVG Version: 2.1.1 Build 2)  -->
  <defs>
    <style>
      .st0 {
        fill: #fff;
        fill-rule: evenodd;
      }
    </style>
  </defs>
  <path class="st0" d="M234.3,1H21.7C10.3,1,1,10.3,1,21.7h0v212.6c0,11.4,9.3,20.7,20.7,20.7h212.6c11.4,0,20.7-9.3,20.7-20.7V21.7c0-11.4-9.3-20.7-20.7-20.7ZM159.8,225.9c-5.1,1-6.9-2.1-6.9-4.8s.1-14.1.1-27.6-3.2-15.5-6.8-18.6c22.4-2.5,45.9-11,45.9-49.6.2-10-3.5-19.7-10.3-27,1-2.5,4.5-12.8-1-26.6,0,0-8.4-2.7-27.6,10.3-16.5-4.5-33.8-4.5-50.3,0-19.2-13-27.6-10.3-27.6-10.3-5.5,13.8-2,24.1-1,26.6-6.8,7.3-10.5,17-10.3,27,0,38.5,23.5,47.2,45.8,49.7-2.9,2.5-5.5,6.9-6.4,13.4-5.7,2.6-20.3,7-29.3-8.4,0,0-5.3-9.6-15.4-10.4,0,0-9.8-.1-.7,6.1,0,0,6.6,3.1,11.2,14.7,0,0,5.9,19.6,33.9,13.5,0,8.4,0,14.7,0,17.1s-1.8,5.8-6.9,4.8c-52.7-17.6-81.1-74.5-63.5-127.1,17.6-52.7,74.5-81.1,127.1-63.5,52.7,17.6,81.1,74.5,63.5,127.1-10,30-33.5,53.5-63.5,63.5h0Z"/>
</svg>