<?xml version="1.0" encoding="UTF-8"?>
<svg id="Layer_1" xmlns="http://www.w3.org/2000/svg" version="1.1" viewBox="0 0 143.1 81.3">
  <!-- Generator: Adobe Illustrator 30.1.0, SVG Export Plug-In . SVG Version: 2.1.1 Build 136)  -->
  <defs>
    <style>
      .st0 {
        fill: #aaa;
      }
    </style>
  </defs>
  <path class="st0" d="M90.9,19.9c0-5.2,2.1-10.3,5.8-14C100.4,2.2,105.4,0,110.7,0s10.3,2.1,14,5.8c3.7,3.7,5.8,8.8,5.8,14s-2.1,10.3-5.8,14c-3.7,3.7-8.8,5.8-14,5.8s-10.3-2.1-14-5.8-5.8-8.8-5.8-14h0ZM113.5,41.7h-5.8c-7.9,0-15.4,3.1-20.9,8.7-5.6,5.5-8.7,16.4-8.7,24.2,0,3.1,1.7,6.6,5.2,6.6h54.7c3.1,0,5.2-3.5,5.2-6.6,0-7.9-3.1-18.7-8.7-24.2-5.6-5.5-13.1-8.7-20.9-8.7h0Z"/>
  <path class="st0" d="M69.8,24.3L40.2,1.5c-2.4-1.6-5.5-1.6-8,0L2.9,24.3c-1.8,1.3-2.9,3.5-2.9,5.8v44c0,3.9,3.3,7.2,7.2,7.2h16.8v-25.8c0-3.2,2.5-5.7,5.7-5.7h13c3.2,0,5.7,2.5,5.7,5.7v25.8h16.8c3.9,0,7.2-3.3,7.2-7.2V29.9c0-2.2-1.1-4.3-2.9-5.7h.3Z"/>
</svg>