<?xml version="1.0" encoding="UTF-8"?>
<svg id="Layer_1" xmlns="http://www.w3.org/2000/svg" version="1.1" viewBox="0 0 135.3 81.2">
  <!-- Generator: Adobe Illustrator 30.1.0, SVG Export Plug-In . SVG Version: 2.1.1 Build 136)  -->
  <defs>
    <style>
      .st0 {
        fill: #aaa;
      }
    </style>
  </defs>
  <path class="st0" d="M12.7,19.8c0-5.2,2.1-10.3,5.8-14,3.7-3.7,8.8-5.8,14-5.8s10.3,2.1,14,5.8c3.7,3.7,5.8,8.8,5.8,14s-2.1,10.3-5.8,14-8.8,5.8-14,5.8-10.3-2.1-14-5.8c-3.7-3.7-5.8-8.8-5.8-14ZM35.4,41.7h-5.8c-7.9,0-15.4,3.1-20.9,8.7C3.1,55.9,0,63.4,0,71.3s2.1,6.6,5.2,6.6h54.7c2.9,0,5.2-3.5,5.2-6.6,0-7.9-3.1-15.4-8.7-20.9-5.5-5.5-13.1-8.7-20.9-8.7h0ZM83,19.8c0-5.2,2.1-10.3,5.8-14,3.8-3.7,8.8-5.8,14-5.8s10.3,2.1,14,5.8c3.7,3.7,5.8,8.8,5.8,14s-2.1,10.3-5.8,14c-3.7,3.7-8.8,5.8-14,5.8s-10.3-2.1-14-5.8-5.8-8.8-5.8-14ZM105.7,41.7h-5.8c-7.9,0-15.4,3.1-20.9,8.7-5.6,5.5-8.7,13.1-8.7,20.9s2.4,6.6,5.2,6.6h54.7c2.1,0,5.2-3.5,5.2-6.6,0-7.9-3.1-15.4-8.7-20.9-5.6-5.5-13.1-8.7-20.9-8.7h0Z"/>
  <path class="st0" d="M87.4,7.3v21.8h-4.6c-3.3,0-5.5-3.6-3.8-6.5l8.6-15.2h-.1Z"/>
  <path class="st0" d="M48.2,7.3v21.8h4.6c3.3,0,5.5-3.6,3.8-6.5l-8.6-15.2h.1Z"/>
</svg>