<?xml version="1.0" encoding="UTF-8"?>
<svg id="Layer_1" xmlns="http://www.w3.org/2000/svg" version="1.1" viewBox="0 0 256 256">
  <!-- Generator: Adobe Illustrator 29.8.1, SVG Export Plug-In . SVG Version: 2.1.1 Build 2)  -->
  <defs>
    <style>
      .st0 {
        fill: #fff;
        fill-rule: evenodd;
      }
    </style>
  </defs>
  <path class="st0" d="M196.5,51.8h-22.8c-4.2,0-7.6,3.4-7.6,7.6v22.8c0,4.2,3.4,7.6,7.6,7.6h22.8c4.2,0,7.6-3.4,7.6-7.6h0v-22.9c0-4.2-3.4-7.6-7.6-7.6h0Z"/>
  <path class="st0" d="M188.9,128c0,33.7-27.3,60.9-60.9,60.9s-60.9-27.3-60.9-60.9.7-10.4,2-15.2h-17.2v83.8c0,4.2,3.4,7.6,7.6,7.6h137.1c4.2,0,7.6-3.4,7.6-7.6v-83.8h-17.2c1.3,4.9,2,10,2,15.2h-.1Z"/>
  <path class="st0" d="M128,166.1c21,0,38.1-17.1,38.1-38.1s-17-38.1-38.1-38.1-38.1,17-38.1,38.1,17,38.1,38.1,38.1Z"/>
  <path class="st0" d="M234.3,1H21.7C10.3,1,1,10.3,1,21.7v212.6c0,11.4,9.3,20.7,20.7,20.7h212.6c11.4,0,20.7-9.3,20.7-20.7V21.7c0-11.4-9.3-20.7-20.7-20.7ZM227,204.1c0,12.6-10.2,22.9-22.8,22.9H51.8c-12.6,0-22.8-10.2-22.8-22.9V51.8c0-12.6,10.2-22.8,22.8-22.8h152.3c12.6,0,22.8,10.2,22.8,22.8v152.3h0Z"/>
</svg>