<?xml version="1.0" encoding="UTF-8"?>
<svg id="Layer_1" xmlns="http://www.w3.org/2000/svg" version="1.1" viewBox="0 0 256 256">
  <!-- Generator: Adobe Illustrator 29.8.1, SVG Export Plug-In . SVG Version: 2.1.1 Build 2)  -->
  <defs>
    <style>
      .st0 {
        fill: #fff;
      }
    </style>
  </defs>
  <path class="st0" d="M234.3,1H21.7C10.3,1,1,10.3,1,21.7h0v212.6c0,11.4,9.3,20.7,20.7,20.7h212.6c11.4,0,20.7-9.3,20.7-20.7V21.7c0-11.4-9.3-20.7-20.7-20.7ZM92.2,187.9h-28.7v-85.5h28.7v85.5ZM77.8,90.6h-.2c-9.5,0-15.7-6.6-15.7-14.7s6.3-14.7,16.1-14.7,15.7,6.4,15.9,14.7-6.2,14.7-16.1,14.7ZM194.6,187.9h-28.7v-45.9c0-11.5-4-19.4-14.3-19.4s-12.4,5.3-14.5,10.4c-.8,1.8-.9,4.4-.9,6.9v47.9h-28.5s.4-77.8,0-85.5h28.5v12c3.6-5.8,10.5-14.1,25.7-14.1s32.7,12.2,32.7,38.5v49.2Z"/>
</svg>