<svg xmlns="http://www.w3.org/2000/svg" id="Layer_1" viewBox="0 0 648.5 648.5"><defs><style>.st0{fill:rgb(43, 101, 65)}</style></defs><path d="M386.3 26.7c-6.8 15.8-3.3 34.1 8.9 46.2l60.1 60.1-149.9 150.1c-15.7 17.5-14.2 44.3 3.3 60 16.1 14.5 40.6 14.5 56.7 0l150.3-150.2 60.1 60.1c12.1 12.1 30.4 15.7 46.2 8.9 15.8-6.5 26.3-21.8 26.5-38.9V42.7c0-23.5-19.1-42.6-42.7-42.7H425.5c-17.3.1-32.8 10.6-39.2 26.7z" class="st0"/><path d="M622.2 337.4v222.2c-.1 49-39.9 88.7-88.9 88.9H88.9c-49-.1-88.7-39.9-88.9-88.9V115.2c.1-49.1 39.9-88.8 88.9-88.9h222.2c24.5 0 44.4 19.9 44.4 44.4s-19.9 44.4-44.4 44.4H88.9v444.4h444.4V337.3c0-24.5 19.9-44.4 44.4-44.4s44.4 19.9 44.4 44.4z" class="st0"/></svg>