<?xml version="1.0" encoding="UTF-8"?><svg id="Layer_1" xmlns="http://www.w3.org/2000/svg" viewBox="0 0 72.91 81.31"><defs><style>.cls-1{fill:#aaa;}</style></defs><path class="cls-1" d="M43.56,50.15v21.3h-14.2v-21.3c0-.43.35-.79.79-.79h12.63,0c.21,0,.41.08.56.23s.23.35.23.56h0ZM61.89,28.05l-22.5-17.29c-1.84-1.2-4.22-1.2-6.06,0L11.02,28.05c-1.36,1.05-2.17,2.67-2.18,4.39v33.49c.01,3.04,2.48,5.51,5.52,5.52h10.26v-21.3c.02-3.04,2.48-5.51,5.52-5.52h12.63,0c3.04.02,5.51,2.48,5.52,5.52v21.3h10.26c3.04-.02,5.51-2.48,5.52-5.52v-33.58c-.04-1.69-.84-3.26-2.18-4.29h0Z"/></svg>