<svg xmlns="http://www.w3.org/2000/svg" id="Layer_2" viewBox="0 0 300 300" width="300" height="300"><defs><style>.cls-1{fill:#ed1d24}.cls-2{fill:#fff}</style></defs><g id="Layer_1-2"><path d="M0 300h300V0H0v300z" class="cls-1"/><path d="M134.89 186.57h-20.43l-17.09-29.33h-6.98v29.33H72.57v-72.7h31.25c17.1 0 26.27 7.6 26.27 21.02s-9.38 19.39-14.39 20.66l19.18 31.01zm-33.14-58.97H90.28v15.9h11.47c5.62 0 9.78-2.33 9.78-8.04s-4.16-7.86-9.78-7.86m102.75 47.99s-9.18 12.69-30.64 12.69-34.49-14.8-34.49-38.26 14.07-37.63 34.91-37.63 27.82 13.52 28.77 15.85l-15.12 7.2c-.94-2.33-4.69-8.47-13.44-8.47s-16.57 6.14-16.57 23.26 7.39 23.25 16.35 23.25 12.61-4.01 12.61-4.01v-12.05h-14.49v-14.06h32.11v32.23zm41.47 10.98h-27.93v-72.7h27.93c22.51 0 35.86 13.52 35.86 36.35s-13.35 36.35-35.86 36.35m-2.92-58.11h-7.19V172h7.19c14.18 0 20.11-7.4 20.11-21.78s-5.94-21.76-20.11-21.76" class="cls-2"/></g></svg>