<?xml version="1.0" encoding="UTF-8"?>
<svg id="Layer_1" xmlns="http://www.w3.org/2000/svg" version="1.1" viewBox="0 0 256 256">
  <!-- Generator: Adobe Illustrator 29.8.1, SVG Export Plug-In . SVG Version: 2.1.1 Build 2)  -->
  <defs>
    <style>
      .st0 {
        fill: #fff;
      }
    </style>
  </defs>
  <path class="st0" d="M234.3,1H21.7C10.3,1,1,10.3,1,21.7v212.6c0,11.4,9.3,20.7,20.7,20.7h212.6c11.4,0,20.7-9.3,20.7-20.7V21.7c0-11.4-9.3-20.7-20.7-20.7ZM211.5,110.9c-16.4,0-32.4-5.1-45.7-14.6v66.9c0,33.5-27.1,60.6-60.6,60.6-12,0-23.8-3.5-33.8-10.3-16.2-10.9-26.9-29.4-26.9-50.4,0-33.5,27.1-60.6,60.7-60.7,2.8,0,5.6.2,8.3.6v33.5c-2.7-.8-5.5-1.3-8.4-1.3-15.3,0-27.7,12.4-27.7,27.7,0,10.5,5.9,20.1,15.3,24.8,3.8,1.9,8,3,12.5,3,15.3,0,27.7-12.4,27.7-27.6V32.2h33v4.2c.1,1.2.3,2.5.5,3.8,1.6,9.3,6,17.9,12.5,24.2h0c8.3,8.1,14.6,10.1,17.9,11.3,4.7,1.6,9.7,2.4,14.8,2.4v32.8Z"/>
</svg>