<svg xmlns="http://www.w3.org/2000/svg" width="256" height="256" viewBox="0 0 256 256"><path d="M108.8 150.2l51.5-26.7-51.5-26.8v53.5z"/><path d="M234.3 1H21.7A20.7 20.7 0 0 0 1 21.7v212.6A20.7 20.7 0 0 0 21.7 255h212.6a20.7 20.7 0 0 0 20.7-20.7V21.7A20.7 20.7 0 0 0 234.3 1zM224 132.7a268.1 268.1 0 0 1-2 30.8s-2 13.1-7.7 18.9c-7.2 7.6-15.4 7.6-19.1 8.1-26.6 1.9-66.7 2-66.7 2s-49.5-.5-64.8-2c-4.2-.8-13.8-.6-21-8.1-5.7-5.8-7.7-18.9-7.7-18.9a268.2 268.2 0 0 1-2-30.8v-14.5a270 270 0 0 1 2-30.9s2-13.2 7.7-19c7.2-7.6 15.4-7.7 19.1-8.2 26.6-1.9 66.6-2.2 66.6-2.2h.1s40 .3 66.7 2.2c3.7.4 11.9.7 19.1 8.3 5.7 5.8 7.6 18.9 7.6 18.9a268.4 268.4 0 0 1 2 30.8z"/></svg>