<?xml version="1.0" encoding="UTF-8"?><svg id="Layer_1" xmlns="http://www.w3.org/2000/svg" viewBox="0 0 135.33 81.25"><defs><style>.cls-1{fill:#aaa;}</style></defs><path class="cls-1" d="M12.71,19.79c0-5.25,2.09-10.28,5.8-14,3.71-3.71,8.75-5.8,14-5.8s10.28,2.09,14,5.8c3.71,3.71,5.8,8.75,5.8,14s-2.09,10.28-5.8,13.99c-3.71,3.71-8.75,5.8-14,5.8s-10.28-2.08-14-5.8c-3.71-3.71-5.8-8.75-5.8-13.99ZM35.38,41.67h-5.75c-7.86,0-15.38,3.13-20.94,8.69C3.14,55.91.01,63.44,0,71.29c0,3.12,2.14,5.84,5.17,6.58,8.94,2.25,18.12,3.38,27.33,3.38,9.21,0,18.4-1.13,27.33-3.38,3.03-.75,5.16-3.46,5.17-6.58-.01-7.86-3.14-15.38-8.69-20.94-5.55-5.55-13.08-8.68-20.94-8.69h0ZM83.04,19.79c0-5.25,2.09-10.28,5.8-14,3.71-3.71,8.75-5.8,14-5.8s10.28,2.09,14,5.8c3.71,3.71,5.8,8.75,5.8,14s-2.09,10.28-5.8,13.99c-3.71,3.71-8.75,5.8-14,5.8s-10.28-2.08-14-5.8c-3.71-3.71-5.8-8.75-5.8-13.99ZM105.71,41.67h-5.75c-7.86,0-15.38,3.13-20.94,8.69-5.55,5.55-8.68,13.08-8.69,20.94,0,3.12,2.14,5.84,5.17,6.58,8.94,2.25,18.12,3.38,27.33,3.38,9.21,0,18.4-1.13,27.33-3.38,3.03-.75,5.16-3.46,5.17-6.58-.01-7.86-3.14-15.38-8.69-20.94-5.55-5.55-13.08-8.68-20.94-8.69h0Z"/></svg>