<svg xmlns="http://www.w3.org/2000/svg" width="500" height="500" viewBox="0 0 500 500"><path fill="#00673e" d="M0 0h500v500H0z"/><path fill="#fff" d="M231.3 142.7v.4c0 26.2 19.5 48 47.3 48V225c-25.8 0-47.8-10.6-62.7-27.5l10.6 24.8h-38.3L175.7 190h-65.6l-12.5 32.3H60.2l13.9-32.5c36.4-16.2 77.1-29.9 121.2-40.4-.1-1.6-.1-3.2-.1-4.8v-.4c0-44.4 35-80.8 83.4-80.8v31.8c-27.8 0-47.3 21.3-47.3 47.5zM190 137c-10.3 1.4-21.4 3-32.9 4.8l-14.2-36.6-16.2 41.8c-12.5 2.3-25.2 4.9-37.6 7.6L127.4 65h31.8z"/><path fill="#94c947" d="M60.2 250.7h379.6v5.15H60.2z"/><path fill="#fff" d="M64.4 314.2v-.2c0-15.9 12.4-28.9 29.3-28.9 10.1 0 16.1 2.7 22 7.7l-7.8 9.4c-4.3-3.6-8.2-5.7-14.6-5.7-9 0-16.1 7.9-16.1 17.4v.2c0 10.2 7 17.7 16.9 17.7a19.6 19.6 0 0 0 11.6-3.4v-8H93.5v-10.6h24.3v24.3a36.3 36.3 0 0 1-23.9 8.9c-17.5 0-29.5-12.3-29.5-28.8zm62.3-15h12.2v8.6c2.5-5.9 6.5-9.8 13.7-9.4v12.7h-.6c-8.1 0-13 4.9-13 15.1V342h-12.3zm27.3 30.5v-.2c0-9.4 7.1-13.7 17.3-13.7a30.4 30.4 0 0 1 10.5 1.8v-.7c0-5-3.1-7.8-9.2-7.8a31.5 31.5 0 0 0-11.8 2.3l-3-9.3a37.8 37.8 0 0 1 16.6-3.4c6.6 0 11.4 1.8 14.5 4.8s4.6 7.9 4.6 13.7V342h-11.9v-4.6c-3 3.3-7 5.4-13 5.4-8 0-14.6-4.6-14.6-13.1zm27.9-2.8v-2.2a18.8 18.8 0 0 0-7.8-1.6c-5.2 0-8.4 2.1-8.4 5.9v.2c0 3.3 2.7 5.2 6.6 5.2 5.7 0 9.6-3.1 9.6-7.5zm20.3-27.7h12.2v6.2c3-4 7-7 13.4-7 10 0 19.5 7.8 19.5 22.1v.2c0 14.3-9.4 22.1-19.5 22.1a16.5 16.5 0 0 1-13.4-6.4v18.4h-12.2zm32.9 21.5v-.2c0-7.1-4.8-11.8-10.5-11.8s-10.4 4.7-10.4 11.8v.2c0 7.1 4.7 11.8 10.4 11.8s10.5-4.6 10.5-11.8zm19.5-37h12.2v21.6c2.8-3.6 6.4-6.9 12.6-6.9 9.2 0 14.5 6.1 14.5 15.9V342h-12.2v-23.9c0-5.8-2.7-8.7-7.4-8.7s-7.6 3-7.6 8.7V342h-12.1zm48.5 0h12.8v10.8h-12.8zm.3 15.5h12.2V342h-12.2zm19.9 21.6v-.2a22 22 0 0 1 22.5-22.3c8.1 0 13.1 2.7 17.1 7.2l-7.4 8c-2.7-2.9-5.4-4.7-9.8-4.7-6.1 0-10.4 5.4-10.4 11.7v.2c0 6.6 4.2 11.8 10.9 11.8 4.1 0 6.9-1.8 9.8-4.6l7.1 7.2c-4.2 4.6-9 7.8-17.5 7.8a21.9 21.9 0 0 1-22.3-22.1zM66.9 365.5h21.8c17.6 0 29.7 12.1 29.7 27.8v.2c0 15.7-12.2 28-29.7 28H66.9zm21.8 44.8c10.1 0 16.9-6.8 16.9-16.7v-.2c0-9.9-6.8-16.9-16.9-16.9h-9.5v33.7zm35.8-10.1v-.2c0-12.2 8.7-22.3 21.2-22.3 14.3 0 20.9 11.1 20.9 23.3 0 1-.1 2.1-.2 3.2h-29.9c1.2 5.5 5 8.4 10.5 8.4s7-1.3 10.4-4.4l7 6.2c-4 5-9.8 8-17.5 8-12.9 0-22.4-9.1-22.4-22.2zm30.2-3.6c-.7-5.4-3.9-9.1-9-9.1s-8.3 3.6-9.3 9.1zm15.9 19.1l5.2-8c4.6 3.4 9.5 5.1 13.5 5.1s5.1-1.3 5.1-3.2v-.2c0-2.6-4.2-3.5-8.9-5s-12.8-4.6-12.8-12.9v-.2c0-8.7 7-13.6 15.7-13.6a29.7 29.7 0 0 1 16 5l-4.6 8.4c-4.2-2.5-8.5-4-11.6-4s-4.5 1.3-4.5 3v.2c0 2.4 4.1 3.5 8.7 5.1s13 4.9 13 12.7v.2c0 9.5-7.1 13.8-16.4 13.8a30 30 0 0 1-18.4-6.4zm42.1-52.6h12.8v10.8h-12.8zm.3 15.5h12.2v42.8H213zm22.3 51.3l4.2-9.1a28 28 0 0 0 14.5 3.9c8.3 0 12.2-4 12.2-11.7v-2.1c-3.6 4.3-7.5 7-14 7-10 0-19-7.3-19-20v-.2c0-12.8 9.2-20 19-20 6.6 0 10.6 2.8 13.8 6.4v-5.6h12.2v33.2c0 7.7-1.8 13.3-5.4 16.9s-10.2 5.8-18.5 5.8a40.7 40.7 0 0 1-19-4.5zm30.9-32v-.2c0-5.8-4.6-9.9-10.5-9.9s-10.4 4.1-10.4 9.9v.2c0 5.9 4.5 9.9 10.4 9.9s10.4-4 10.4-9.9zm21.2-19.3h12.2v6.1c2.8-3.6 6.4-6.9 12.6-6.9 9.2 0 14.5 6.1 14.5 15.9v27.7h-12.2v-23.9c0-5.8-2.7-8.7-7.4-8.7s-7.6 3-7.6 8.7v23.9h-12.1z"/></svg>