<svg xmlns="http://www.w3.org/2000/svg" width="1000" height="1000" viewBox="0 0 1000 1000"><path fill="#ed1d24" d="M0 1000h1000V0H0z"/><path fill="#fff" d="M532.2 602.2h-57.8l-48.5-82h-19.7v82h-50.5V399.1h88.5c48.5 0 74.5 21.2 74.5 58.7s-26.6 54.2-40.8 57.7l54.3 86.7zm-93.8-164.8h-32.5v44.4h32.5c15.9 0 27.7-6.5 27.7-22.4s-11.8-22-27.7-22m291 134.1s-26 35.4-86.8 35.4-97.7-41.3-97.7-106.9 39.9-105.1 98.9-105.1 78.8 37.8 81.5 44.3l-42.8 20.1c-2.7-6.5-13.3-23.6-38.1-23.6s-46.9 17.1-46.9 64.9 20.9 65 46.3 65 35.7-11.2 35.7-11.2v-33.7h-41v-39.3h90.9v90.1zm117.5 30.7h-79.1V399.1h79.1c63.8 0 101.6 37.8 101.6 101.5s-37.8 101.6-101.6 101.6m-8.2-162.4h-20.4v121.7h20.4c40.1 0 56.9-20.7 56.9-60.9s-16.8-60.8-56.9-60.8"/></svg>