<svg xmlns="http://www.w3.org/2000/svg" id="Layer_1" viewBox="0 0 480 177.8" width="480" height="177.8"><defs><style>.st0{fill:#b5b5b5}.st1{fill:#fff}</style></defs><g id="ebc39ece-983b-4aa5-924f-fb4198480e06"><g id="a250ce2b-81a0-423b-9a2d-0ad5b0e7bcc0"><path d="M13.1 6.5c0 3.6-2.6 5.3-6.2 5.3H5v5.5H2V1.4h4.7c4 0 6.4 1.6 6.4 5.1zm-3.2 0c0-2-1.2-2.8-3.3-2.8H5v5.8h1.6c2.1 0 3.3-.7 3.3-3zm14.5 2v8.7h-2.9V8.9c0-1.5-.6-1.9-1.5-1.9s-1.8.7-2.5 1.8v8.5h-2.9V.3l2.8-.3v6.6c.8-1.1 2.1-1.8 3.6-1.8s3.4 1.4 3.4 3.7zm13.5 2.7c0 3.8-2.1 6.4-5.7 6.4s-5.7-2.4-5.7-6.4 2.1-6.4 5.7-6.4 5.7 2.4 5.7 6.4zm-8.3 0c0 2.9.9 4.2 2.6 4.2s2.6-1.3 2.6-4.2S33.9 7 32.2 7s-2.6 1.3-2.6 4.2zm17.6 5.5c-.9.6-2 .9-3.1.9-2.4 0-3.6-1.4-3.6-4V7.2h-1.9V5.1h1.9V2.4l2.9-.3v3h2.8L46 7.3h-2.5v6.3c0 1.2.4 1.7 1.3 1.7s1-.2 1.4-.4l1 1.8zm11.4-5.5c0 3.8-2.1 6.4-5.7 6.4s-5.7-2.4-5.7-6.4 2.1-6.4 5.7-6.4 5.7 2.4 5.7 6.4zm-8.3 0c0 2.9.9 4.2 2.6 4.2s2.6-1.3 2.6-4.2S54.6 7 52.9 7s-2.6 1.3-2.6 4.2zm18.7-5L67.9 8c-.9-.6-2-1-3-1S63 7.4 63 8.2s.5 1.2 2.5 1.7c2.5.7 3.9 1.7 3.9 3.8s-2.3 3.9-5.1 3.9c-1.8.1-3.5-.6-4.8-1.7l1.5-1.7c.9.7 2.1 1.2 3.3 1.2s2.1-.6 2.1-1.5-.5-1.3-2.7-2c-2.5-.7-3.6-1.9-3.6-3.7s1.9-3.6 4.7-3.6 3 .7 4.2 1.6zm12.2 2.3v8.7h-2.9V8.9c0-1.5-.6-1.9-1.5-1.9s-1.8.7-2.5 1.8v8.5h-2.9V.3l2.8-.3v6.6c.8-1.1 2.1-1.8 3.6-1.8s3.4 1.4 3.4 3.7zm13.5 2.7c0 3.8-2.1 6.4-5.7 6.4s-5.7-2.4-5.7-6.4 2.1-6.4 5.7-6.4 5.7 2.4 5.7 6.4zm-8.3 0c0 2.9.9 4.2 2.6 4.2s2.6-1.3 2.6-4.2S90.7 7 89 7s-2.6 1.3-2.6 4.2zm21.3 0c0 3.7-1.7 6.4-4.8 6.4s-2.3-.4-3-1.3V22l-2.9.3V5.1h2.6l.2 1.5c.8-1.1 2.1-1.8 3.6-1.8 3 0 4.3 2.5 4.3 6.4zm-3.1 0c0-3.1-.8-4.2-2.3-4.2s-2 .7-2.5 1.6v5.5c.5.8 1.3 1.3 2.2 1.3 1.7 0 2.6-1.3 2.6-4.2zM5 70.6H2V54.8h3v15.8zm3-2.7V53.7l2.9-.3v14.4c0 .6.2.8.7.8h.7l.6 2.1c-.6.3-1.3.4-2 .4C9.1 71.1 8 70 8 68zm6.4 0V53.7l2.9-.3v14.4c0 .6.2.8.7.8h.7l.6 2.1c-.6.3-1.3.4-2 .4-1.8 0-2.9-1.1-2.9-3.1zm16.1 2.7H28l-.2-1.7c-.8 1.3-2.2 2.1-3.7 2.1-2.2 0-3.4-1.4-3.4-3.8v-8.7h2.9v8.3c0 1.4.5 1.9 1.5 1.9s2-.7 2.4-1.7v-8.5h3v12.1zm11.2-11l-1.2 1.7c-.9-.6-2-1-3-1s-1.8.5-1.8 1.2.5 1.2 2.5 1.7c2.5.7 3.9 1.7 3.9 3.8s-2.3 3.9-5.1 3.9-3.5-.6-4.8-1.7l1.5-1.6c.9.7 2.1 1.2 3.3 1.2s2.1-.6 2.1-1.5-.5-1.3-2.7-2c-2.5-.7-3.6-1.9-3.6-3.7s1.9-3.6 4.7-3.6 2.9.7 4.2 1.6zm9.2 10.5c-.9.6-2 .9-3.1.9-2.4 0-3.6-1.4-3.6-4v-6.4h-1.9v-2.1h1.9v-2.7l2.9-.3v3H50l-.3 2.1h-2.5V67c0 1.2.4 1.7 1.3 1.7s1-.2 1.4-.4l1 1.8zm8.3-11.7l-.5 2.8h-1.1c-1.5 0-2.2 1.1-2.7 3.1v6.5H52V58.6h2.5l.3 2.4c.6-1.7 1.7-2.7 3.2-2.7s.8 0 1.2.2zM69.9 69l-.6 1.9c-1.3 0-2.2-.6-2.7-1.8-.8 1.2-2.2 1.9-3.6 1.8-2.4 0-3.9-1.5-3.9-3.7s2-4.1 5.5-4.1h1.5v-.7c0-1.6-.7-2.1-2.3-2.1s-2.2.3-3.2.6l-.7-2c1.4-.5 2.9-.8 4.4-.9 3.3 0 4.7 1.5 4.7 4.2v5.2c0 1 .3 1.4.9 1.6zm-3.8-1.6V65h-1.2c-1.9 0-2.9.6-2.9 2s.5 1.7 1.4 1.8h.4c.9 0 1.9-.5 2.3-1.4zM79 70.1c-.9.6-2 .9-3 .9-2.4 0-3.6-1.4-3.6-4v-6.4h-1.9v-2.1h1.9v-2.7l2.9-.3v3h2.8l-.3 2.1h-2.5V67c0 1.2.4 1.7 1.3 1.7s1-.2 1.4-.4l1 1.8zm11.4-5.5c0 3.8-2.1 6.4-5.7 6.4S79 68.6 79 64.6s2.1-6.4 5.7-6.4 5.7 2.4 5.7 6.4zm-8.3 0c0 2.9.9 4.2 2.6 4.2s2.6-1.3 2.6-4.2-.9-4.2-2.6-4.2-2.6 1.3-2.6 4.2zm17.8-6.2l-.5 2.8h-1.1c-1.5 0-2.2 1.1-2.7 3.1v6.5h-2.9V58.6h2.5l.3 2.4c.6-1.7 1.8-2.7 3.2-2.7s.8 0 1.2.2zM5 124H2v-15.8h3V124zm13.1-8.8v8.8h-2.9v-8.3c0-1.5-.6-1.9-1.5-1.9s-1.8.7-2.5 1.8v8.4h-3v-12.2h2.5l.2 1.6c.8-1.2 2.2-1.9 3.7-1.9 2.2 0 3.5 1.4 3.5 3.7zm15 .8c0 6.4-3.9 8-7.7 8H21v-15.8h3.9c4.2 0 8.2 1.3 8.2 7.8zm-9-5.5v11.3h1.5c2.4 0 4.3-1.1 4.3-5.7s-2.1-5.6-4.4-5.6h-1.4zm21.1 8.4h-7.6c.2 2.5 1.4 3.3 3 3.3s2.2-.4 3-1.1l1.2 1.7c-1.3 1.1-2.8 1.6-4.5 1.6-3.8 0-5.8-2.5-5.8-6.3s1.9-6.5 5.4-6.5 5.3 2.3 5.3 6.1v1.2zm-2.8-2.1c0-2-.7-3.2-2.4-3.2s-2.2.9-2.4 3.3h4.8v-.1zm13.2-3.8l-1.2 1.7c-.9-.6-2-1-3-1s-1.8.5-1.8 1.2.5 1.2 2.5 1.7c2.5.7 3.9 1.7 3.9 3.8s-2.3 3.9-5.1 3.9-3.5-.6-4.8-1.7l1.5-1.7c.9.7 2.1 1.2 3.3 1.2s2.1-.5 2.1-1.5-.5-1.3-2.7-2c-2.5-.7-3.6-1.9-3.6-3.7s1.9-3.6 4.7-3.6c1.4.2 3 .7 4.2 1.7zm5.5-5.5c0 1-.7 1.9-1.8 1.9s-1.9-.7-1.9-1.8.7-1.9 1.8-1.9 1.8.8 1.8 1.8h.1zm-.3 16.5h-2.9v-12.1h2.9V124zm13.5-11.5c-1.1.3-2.3.5-3.5.4 1.5.7 2.2 1.6 2.2 3.1 0 2.4-1.8 4.1-4.9 4.1s-1 0-1.4-.2c-.3.2-.5.5-.5.9s.3.8 1.5.8h1.9c2.7 0 4.4 1.4 4.4 3.4s-2.1 3.9-6.1 3.9-5.5-1.4-5.5-3.8H65c0 1.2.5 1.7 2.9 1.7s3-.6 3-1.6-.7-1.4-2.1-1.4h-1.9c-2.4 0-3.5-1.1-3.5-2.3s.6-1.8 1.4-2.2c-1.3-.6-2.2-1.9-2.1-3.4 0-2.6 2.1-4.4 5-4.4s4-.3 5.7-1.3l.9 2.3zm-8.4 3.4c0 1.5.8 2.4 2.1 2.4s2.1-.9 2.1-2.4-.7-2.3-2.2-2.3-2 .9-2 2.3zm19.6-.7v8.8h-2.9v-8.3c0-1.5-.6-1.9-1.5-1.9s-1.8.7-2.5 1.8v8.4h-2.9v-12.2h2.5l.2 1.6c.8-1.2 2.2-1.9 3.7-1.9s3.4 1.4 3.4 3.7zM9.4 173.7H4.2l-1 3.7H0l5-15.8h3.7l4.9 15.8h-3.2l-1-3.7zm-.6-2.3l-2-7.6-2 7.6h4zm16.1-11v17h-2.6l-.2-1.5c-.7 1.2-2.1 1.9-3.5 1.9-3 0-4.6-2.5-4.6-6.4s1.9-6.4 4.9-6.4 2.3.5 3.1 1.3v-6.1l2.9.2zM22 174v-5.5c-.5-.8-1.4-1.3-2.3-1.3-1.5 0-2.5 1.3-2.5 4.2s.9 4.2 2.3 4.2c1.1-.1 2-.7 2.5-1.6zm16.6-2.7c0 3.8-2.1 6.4-5.7 6.4s-5.7-2.4-5.7-6.4 2.1-6.4 5.7-6.4 5.7 2.5 5.7 6.4zm-8.3 0c0 2.9.9 4.2 2.6 4.2s2.6-1.3 2.6-4.2-.9-4.2-2.6-4.2-2.6 1.4-2.6 4.2zm21.3 0c0 3.8-1.8 6.4-4.8 6.4s-2.4-.6-3.2-1.6l-.2 1.2h-2.6v-17l2.9-.3v6.6c.8-1.1 2-1.7 3.3-1.7 2.9 0 4.6 2.4 4.6 6.4zm-3.1 0c0-3.2-1-4.2-2.4-4.2-1 .1-2 .7-2.4 1.7v5.4c.4.8 1.3 1.4 2.2 1.4 1.6-.1 2.6-1.2 2.6-4.3zm15.3.9h-7.6c.2 2.5 1.4 3.3 3 3.3s2.2-.4 3-1.1l1.2 1.7c-1.3 1.1-2.8 1.6-4.5 1.6-3.8 0-5.8-2.5-5.8-6.3s1.9-6.5 5.4-6.5 5.3 2.3 5.3 6.1v1.2zm-2.9-2c0-2-.7-3.2-2.4-3.2s-2.2.9-2.4 3.3h4.8v-.1zm21.5 7.2H79l-3.2-6.5-3.1 6.5h-3.2L74 169l-4.2-7.4h3.4l2.7 5.5 2.8-5.5H82l-4.3 7.3 4.7 8.5zm13.5-8c0 6.4-3.9 8-7.7 8h-4.3v-15.8h3.9c4.1 0 8.1 1.2 8.1 7.8zm-9-5.6v11.3h1.5c2.4 0 4.3-1.1 4.3-5.7s-2.1-5.6-4.4-5.6h-1.4z" class="st0"/><path d="M124.9 8.3H480v6.6H124.9V8.3zm0 53.4H480v6.6H124.9v-6.6zm0 53.4H480v6.6H124.9v-6.6zm0 53.4H480v6.6H124.9v-6.6z" class="st1"/><path d="M124.9 8.3h249v6.6h-249V8.3zm0 53.4h231v6.6h-231v-6.6zm0 53.4h199.5v6.6H124.9v-6.6zm0 53.4h315.7v6.6H124.9v-6.6z" class="st0"/></g></g></svg>