<svg class="img-flex" width="381.84" height="121.74" viewBox="0 0 357.97 114.13"> <g transform="translate(-29.548 -348.99)"> <path fill="#ed1d24" d="M29.548 463.118h357.974V348.99H29.548v114.127z"></path> <g transform="matrix(3.05194 0 0 -3.05194 220.071 442.627)"> <path fill="#fff" d="M0 0h-6.788l-5.679 9.609h-2.32V0h-5.921v23.82h10.386c5.682 0 8.73-2.49 8.73-6.889 0-4.467-3.118-6.353-4.783-6.77L0 0zm-11.011 19.323h-3.811v-5.21h3.811c1.867 0 3.251.765 3.251 2.634 0 1.87-1.384 2.576-3.251 2.576"></path> </g> <g transform="matrix(3.05194 0 0 -3.05194 290.668 431.643)"> <path fill="#fff" d="M0 0s-3.051-4.157-10.183-4.157S-21.645.693-21.645 8.379c0 7.687 4.675 12.329 11.6 12.329 6.927 0 9.246-4.429 9.56-5.192l-5.023-2.358c-.313.762-1.56 2.774-4.466 2.774-2.911 0-5.505-2.012-5.505-7.62 0-5.611 2.457-7.619 5.434-7.619 2.977 0 4.191 1.315 4.191 1.315v3.947h-4.816v4.607H0V0z"></path> </g> <g transform="matrix(3.05194 0 0 -3.05194 332.725 442.627)"> <path fill="#fff" d="M0 0h-9.281v23.82H0c7.479 0 11.915-4.431 11.915-11.909C11.915 4.432 7.479 0 0 0m-.969 19.042h-2.388V4.775h2.388c4.711 0 6.684 2.426 6.684 7.136s-1.973 7.131-6.684 7.131"></path> </g> </g> </svg> </a>
<svg class="img-flex" width="381.84" height="121.74" viewBox="0 0 357.97 114.13"> <g transform="translate(-29.548 -348.99)"> <path fill="#ed1d24" d="M29.548 463.118h357.974V348.99H29.548v114.127z"></path> <g transform="matrix(3.05194 0 0 -3.05194 220.071 442.627)"> <path fill="#fff" d="M0 0h-6.788l-5.679 9.609h-2.32V0h-5.921v23.82h10.386c5.682 0 8.73-2.49 8.73-6.889 0-4.467-3.118-6.353-4.783-6.77L0 0zm-11.011 19.323h-3.811v-5.21h3.811c1.867 0 3.251.765 3.251 2.634 0 1.87-1.384 2.576-3.251 2.576"></path> </g> <g transform="matrix(3.05194 0 0 -3.05194 290.668 431.643)"> <path fill="#fff" d="M0 0s-3.051-4.157-10.183-4.157S-21.645.693-21.645 8.379c0 7.687 4.675 12.329 11.6 12.329 6.927 0 9.246-4.429 9.56-5.192l-5.023-2.358c-.313.762-1.56 2.774-4.466 2.774-2.911 0-5.505-2.012-5.505-7.62 0-5.611 2.457-7.619 5.434-7.619 2.977 0 4.191 1.315 4.191 1.315v3.947h-4.816v4.607H0V0z"></path> </g> <g transform="matrix(3.05194 0 0 -3.05194 332.725 442.627)"> <path fill="#fff" d="M0 0h-9.281v23.82H0c7.479 0 11.915-4.431 11.915-11.909C11.915 4.432 7.479 0 0 0m-.969 19.042h-2.388V4.775h2.388c4.711 0 6.684 2.426 6.684 7.136s-1.973 7.131-6.684 7.131"></path> </g> </g> </svg>
<g transform="translate(-29.548 -348.99)"> <path fill="#ed1d24" d="M29.548 463.118h357.974V348.99H29.548v114.127z"></path> <g transform="matrix(3.05194 0 0 -3.05194 220.071 442.627)"> <path fill="#fff" d="M0 0h-6.788l-5.679 9.609h-2.32V0h-5.921v23.82h10.386c5.682 0 8.73-2.49 8.73-6.889 0-4.467-3.118-6.353-4.783-6.77L0 0zm-11.011 19.323h-3.811v-5.21h3.811c1.867 0 3.251.765 3.251 2.634 0 1.87-1.384 2.576-3.251 2.576"></path> </g> <g transform="matrix(3.05194 0 0 -3.05194 290.668 431.643)"> <path fill="#fff" d="M0 0s-3.051-4.157-10.183-4.157S-21.645.693-21.645 8.379c0 7.687 4.675 12.329 11.6 12.329 6.927 0 9.246-4.429 9.56-5.192l-5.023-2.358c-.313.762-1.56 2.774-4.466 2.774-2.911 0-5.505-2.012-5.505-7.62 0-5.611 2.457-7.619 5.434-7.619 2.977 0 4.191 1.315 4.191 1.315v3.947h-4.816v4.607H0V0z"></path> </g> <g transform="matrix(3.05194 0 0 -3.05194 332.725 442.627)"> <path fill="#fff" d="M0 0h-9.281v23.82H0c7.479 0 11.915-4.431 11.915-11.909C11.915 4.432 7.479 0 0 0m-.969 19.042h-2.388V4.775h2.388c4.711 0 6.684 2.426 6.684 7.136s-1.973 7.131-6.684 7.131"></path> </g> </g>
<path fill="#ed1d24" d="M29.548 463.118h357.974V348.99H29.548v114.127z"></path>
<g transform="matrix(3.05194 0 0 -3.05194 220.071 442.627)"> <path fill="#fff" d="M0 0h-6.788l-5.679 9.609h-2.32V0h-5.921v23.82h10.386c5.682 0 8.73-2.49 8.73-6.889 0-4.467-3.118-6.353-4.783-6.77L0 0zm-11.011 19.323h-3.811v-5.21h3.811c1.867 0 3.251.765 3.251 2.634 0 1.87-1.384 2.576-3.251 2.576"></path> </g>
<g transform="matrix(3.05194 0 0 -3.05194 290.668 431.643)"> <path fill="#fff" d="M0 0s-3.051-4.157-10.183-4.157S-21.645.693-21.645 8.379c0 7.687 4.675 12.329 11.6 12.329 6.927 0 9.246-4.429 9.56-5.192l-5.023-2.358c-.313.762-1.56 2.774-4.466 2.774-2.911 0-5.505-2.012-5.505-7.62 0-5.611 2.457-7.619 5.434-7.619 2.977 0 4.191 1.315 4.191 1.315v3.947h-4.816v4.607H0V0z"></path> </g>
<g transform="matrix(3.05194 0 0 -3.05194 332.725 442.627)"> <path fill="#fff" d="M0 0h-9.281v23.82H0c7.479 0 11.915-4.431 11.915-11.909C11.915 4.432 7.479 0 0 0m-.969 19.042h-2.388V4.775h2.388c4.711 0 6.684 2.426 6.684 7.136s-1.973 7.131-6.684 7.131"></path> </g>
<g transform="translate(-29.548 -348.99)"> <path fill="#ed1d24" d="M29.548 463.118h357.974V348.99H29.548v114.127z"></path> <g transform="matrix(3.05194 0 0 -3.05194 220.071 442.627)"> <path fill="#fff" d="M0 0h-6.788l-5.679 9.609h-2.32V0h-5.921v23.82h10.386c5.682 0 8.73-2.49 8.73-6.889 0-4.467-3.118-6.353-4.783-6.77L0 0zm-11.011 19.323h-3.811v-5.21h3.811c1.867 0 3.251.765 3.251 2.634 0 1.87-1.384 2.576-3.251 2.576"></path> </g> <g transform="matrix(3.05194 0 0 -3.05194 290.668 431.643)"> <path fill="#fff" d="M0 0s-3.051-4.157-10.183-4.157S-21.645.693-21.645 8.379c0 7.687 4.675 12.329 11.6 12.329 6.927 0 9.246-4.429 9.56-5.192l-5.023-2.358c-.313.762-1.56 2.774-4.466 2.774-2.911 0-5.505-2.012-5.505-7.62 0-5.611 2.457-7.619 5.434-7.619 2.977 0 4.191 1.315 4.191 1.315v3.947h-4.816v4.607H0V0z"></path> </g> <g transform="matrix(3.05194 0 0 -3.05194 332.725 442.627)"> <path fill="#fff" d="M0 0h-9.281v23.82H0c7.479 0 11.915-4.431 11.915-11.909C11.915 4.432 7.479 0 0 0m-.969 19.042h-2.388V4.775h2.388c4.711 0 6.684 2.426 6.684 7.136s-1.973 7.131-6.684 7.131"></path> </g> </g>
<svg class="img-flex" width="381.84" height="121.74" viewBox="0 0 357.97 114.13"> <g transform="translate(-29.548 -348.99)"> <path fill="#ed1d24" d="M29.548 463.118h357.974V348.99H29.548v114.127z"></path> <g transform="matrix(3.05194 0 0 -3.05194 220.071 442.627)"> <path fill="#fff" d="M0 0h-6.788l-5.679 9.609h-2.32V0h-5.921v23.82h10.386c5.682 0 8.73-2.49 8.73-6.889 0-4.467-3.118-6.353-4.783-6.77L0 0zm-11.011 19.323h-3.811v-5.21h3.811c1.867 0 3.251.765 3.251 2.634 0 1.87-1.384 2.576-3.251 2.576"></path> </g> <g transform="matrix(3.05194 0 0 -3.05194 290.668 431.643)"> <path fill="#fff" d="M0 0s-3.051-4.157-10.183-4.157S-21.645.693-21.645 8.379c0 7.687 4.675 12.329 11.6 12.329 6.927 0 9.246-4.429 9.56-5.192l-5.023-2.358c-.313.762-1.56 2.774-4.466 2.774-2.911 0-5.505-2.012-5.505-7.62 0-5.611 2.457-7.619 5.434-7.619 2.977 0 4.191 1.315 4.191 1.315v3.947h-4.816v4.607H0V0z"></path> </g> <g transform="matrix(3.05194 0 0 -3.05194 332.725 442.627)"> <path fill="#fff" d="M0 0h-9.281v23.82H0c7.479 0 11.915-4.431 11.915-11.909C11.915 4.432 7.479 0 0 0m-.969 19.042h-2.388V4.775h2.388c4.711 0 6.684 2.426 6.684 7.136s-1.973 7.131-6.684 7.131"></path> </g> </g> </svg>
<a class="block link-box push" href="https://www.rgd.ca/" rel="external" aria-label="Learn more about the RGD"> <svg class="img-flex" width="381.84" height="121.74" viewBox="0 0 357.97 114.13"> <g transform="translate(-29.548 -348.99)"> <path fill="#ed1d24" d="M29.548 463.118h357.974V348.99H29.548v114.127z"></path> <g transform="matrix(3.05194 0 0 -3.05194 220.071 442.627)"> <path fill="#fff" d="M0 0h-6.788l-5.679 9.609h-2.32V0h-5.921v23.82h10.386c5.682 0 8.73-2.49 8.73-6.889 0-4.467-3.118-6.353-4.783-6.77L0 0zm-11.011 19.323h-3.811v-5.21h3.811c1.867 0 3.251.765 3.251 2.634 0 1.87-1.384 2.576-3.251 2.576"></path> </g> <g transform="matrix(3.05194 0 0 -3.05194 290.668 431.643)"> <path fill="#fff" d="M0 0s-3.051-4.157-10.183-4.157S-21.645.693-21.645 8.379c0 7.687 4.675 12.329 11.6 12.329 6.927 0 9.246-4.429 9.56-5.192l-5.023-2.358c-.313.762-1.56 2.774-4.466 2.774-2.911 0-5.505-2.012-5.505-7.62 0-5.611 2.457-7.619 5.434-7.619 2.977 0 4.191 1.315 4.191 1.315v3.947h-4.816v4.607H0V0z"></path> </g> <g transform="matrix(3.05194 0 0 -3.05194 332.725 442.627)"> <path fill="#fff" d="M0 0h-9.281v23.82H0c7.479 0 11.915-4.431 11.915-11.909C11.915 4.432 7.479 0 0 0m-.969 19.042h-2.388V4.775h2.388c4.711 0 6.684 2.426 6.684 7.136s-1.973 7.131-6.684 7.131"></path> </g> </g> </svg>